<svg xmlns="http://www.w3.org/2000/svg" version="1.1" xmlns:xlink="http://www.w3.org/1999/xlink" width="1000" height="1000"><g clip-path="url(#SvgjsClipPath1217)"><rect width="1000" height="1000" fill="#ffffff"></rect><g transform="matrix(3.3333333333333335,0,0,3.3333333333333335,0,0)"><svg xmlns="http://www.w3.org/2000/svg" version="1.1" xmlns:xlink="http://www.w3.org/1999/xlink" width="300" height="300"><svg version="1.1" id="Layer_1" xmlns="http://www.w3.org/2000/svg" xmlns:xlink="http://www.w3.org/1999/xlink" x="0px" y="0px" viewBox="0 0 300 300" style="enable-background:new 0 0 300 300;" xml:space="preserve">
<style type="text/css">
	.st0{fill:#030712;}
</style>
<g>
	<path class="st0" d="M170.8,262.9h-41c-5.7,0-10.2-4.6-10.2-10.2c0-5.7,4.6-10.2,10.2-10.2h41c5.7,0,10.2,4.6,10.2,10.2
		C181,258.3,176.4,262.9,170.8,262.9z M181,221.9h-61.5c-5.7,0-10.2-4.6-10.2-10.2s4.6-10.2,10.2-10.2H181c5.7,0,10.2,4.6,10.2,10.2
		S186.7,221.9,181,221.9z M181,180.9c-0.7,0-1.3-0.1-2-0.2c-5.5-1.1-9.1-6.5-8-12.1c2.8-13.9,10.4-23.1,18.2-30.8
		c8-7.2,12.4-17.5,12.4-28.6c0-28.2-23-51.2-51.2-51.2c-28.2,0-51.2,23-51.2,51.2c0,8.4,1.5,17.7,12.4,28.6
		c6.4,6.4,15.3,16.6,18.2,30.8c1.1,5.6-2.5,10.9-8,12.1c-5.5,1.1-10.9-2.5-12.1-8c-1.4-6.8-5.2-13-12.6-20.4
		c-16.5-16.5-18.4-32.5-18.4-43.1c0-39.5,32.2-71.7,71.7-71.7c39.5,0,71.7,32.2,71.7,71.7c0,16.9-6.8,32.7-18.7,43.5
		c-7.4,7.5-10.7,12.8-12.2,20C190.1,177.6,185.8,180.9,181,180.9z"></path>
</g>
</svg></svg></g></g><defs><clipPath id="SvgjsClipPath1217"><rect width="1000" height="1000" x="0" y="0" rx="350" ry="350"></rect></clipPath></defs></svg>